<mxfile host="app.diagrams.net" modified="2020-08-27T11:21:07.633Z" agent="5.0 (Windows NT 10.0; Win64; x64) AppleWebKit/537.36 (KHTML, like Gecko) Chrome/84.0.4147.135 Safari/537.36" etag="5d7QRB4DyHb_4KdgmEof" version="12.9.13" type="github">
  <diagram id="kgpKYQtTHZ0yAKxKKP6v" name="Page-1">
    <mxGraphModel dx="1422" dy="713" grid="1" gridSize="10" guides="1" tooltips="1" connect="1" arrows="1" fold="1" page="1" pageScale="1" pageWidth="2339" pageHeight="3300" math="0" shadow="0">
      <root>
        <mxCell id="0" />
        <mxCell id="1" parent="0" />
        <mxCell id="3nuBFxr9cyL0pnOWT2aG-1" value="Service" style="shape=umlLifeline;perimeter=lifelinePerimeter;container=1;collapsible=0;recursiveResize=0;rounded=0;shadow=0;strokeWidth=1;" parent="1" vertex="1">
          <mxGeometry x="240" y="70" width="100" height="570" as="geometry" />
        </mxCell>
        <mxCell id="3nuBFxr9cyL0pnOWT2aG-2" value="" style="points=[];perimeter=orthogonalPerimeter;rounded=0;shadow=0;strokeWidth=1;" parent="3nuBFxr9cyL0pnOWT2aG-1" vertex="1">
          <mxGeometry x="45" y="70" width="10" height="470" as="geometry" />
        </mxCell>
        <mxCell id="3nuBFxr9cyL0pnOWT2aG-4" value="" style="points=[];perimeter=orthogonalPerimeter;rounded=0;shadow=0;strokeWidth=1;" parent="3nuBFxr9cyL0pnOWT2aG-1" vertex="1">
          <mxGeometry x="50" y="120" width="10" height="80" as="geometry" />
        </mxCell>
        <mxCell id="3nuBFxr9cyL0pnOWT2aG-5" value="SupplierFacade" style="shape=umlLifeline;perimeter=lifelinePerimeter;container=1;collapsible=0;recursiveResize=0;rounded=0;shadow=0;strokeWidth=1;" parent="1" vertex="1">
          <mxGeometry x="420" y="70" width="100" height="570" as="geometry" />
        </mxCell>
        <mxCell id="3nuBFxr9cyL0pnOWT2aG-6" value="" style="points=[];perimeter=orthogonalPerimeter;rounded=0;shadow=0;strokeWidth=1;" parent="3nuBFxr9cyL0pnOWT2aG-5" vertex="1">
          <mxGeometry x="45" y="80" width="10" height="460" as="geometry" />
        </mxCell>
        <mxCell id="3nuBFxr9cyL0pnOWT2aG-8" value="getAvailableSessions" style="verticalAlign=bottom;endArrow=block;entryX=0;entryY=0;shadow=0;strokeWidth=1;" parent="1" source="3nuBFxr9cyL0pnOWT2aG-2" target="3nuBFxr9cyL0pnOWT2aG-6" edge="1">
          <mxGeometry relative="1" as="geometry">
            <mxPoint x="395" y="150" as="sourcePoint" />
          </mxGeometry>
        </mxCell>
        <mxCell id="3nuBFxr9cyL0pnOWT2aG-9" value="callback" style="verticalAlign=bottom;endArrow=block;shadow=0;strokeWidth=1;exitX=0.1;exitY=0.633;exitDx=0;exitDy=0;exitPerimeter=0;" parent="1" source="3nuBFxr9cyL0pnOWT2aG-6" edge="1">
          <mxGeometry x="0.0303" y="350" relative="1" as="geometry">
            <mxPoint x="360" y="190" as="sourcePoint" />
            <mxPoint x="294" y="440" as="targetPoint" />
            <Array as="points" />
            <mxPoint as="offset" />
          </mxGeometry>
        </mxCell>
        <mxCell id="fY2GqMK77tZI2S2XJ3D0-1" value="SupplierLivnConnector" style="shape=umlLifeline;perimeter=lifelinePerimeter;container=1;collapsible=0;recursiveResize=0;rounded=0;shadow=0;strokeWidth=1;size=40;" vertex="1" parent="1">
          <mxGeometry x="530" y="70" width="135" height="570" as="geometry" />
        </mxCell>
        <mxCell id="fY2GqMK77tZI2S2XJ3D0-2" value="" style="points=[];perimeter=orthogonalPerimeter;rounded=0;shadow=0;strokeWidth=1;" vertex="1" parent="fY2GqMK77tZI2S2XJ3D0-1">
          <mxGeometry x="62.5" y="80" width="10" height="280" as="geometry" />
        </mxCell>
        <mxCell id="fY2GqMK77tZI2S2XJ3D0-3" value="getAvailableSessions" style="verticalAlign=bottom;endArrow=block;entryX=-0.05;entryY=0.129;shadow=0;strokeWidth=1;entryDx=0;entryDy=0;entryPerimeter=0;" edge="1" parent="1" source="3nuBFxr9cyL0pnOWT2aG-5" target="fY2GqMK77tZI2S2XJ3D0-2">
          <mxGeometry x="-0.0122" y="6" relative="1" as="geometry">
            <mxPoint x="700" y="230.0000000000001" as="sourcePoint" />
            <mxPoint x="870" y="230.0000000000001" as="targetPoint" />
            <mxPoint as="offset" />
          </mxGeometry>
        </mxCell>
        <mxCell id="fY2GqMK77tZI2S2XJ3D0-6" value="response" style="verticalAlign=bottom;endArrow=block;shadow=0;strokeWidth=1;exitX=-0.05;exitY=0.886;exitDx=0;exitDy=0;exitPerimeter=0;" edge="1" parent="1" source="fY2GqMK77tZI2S2XJ3D0-2" target="3nuBFxr9cyL0pnOWT2aG-5">
          <mxGeometry relative="1" as="geometry">
            <mxPoint x="595" y="250" as="sourcePoint" />
            <mxPoint x="478" y="353" as="targetPoint" />
            <Array as="points" />
          </mxGeometry>
        </mxCell>
        <mxCell id="fY2GqMK77tZI2S2XJ3D0-25" value="FeignApiClient" style="shape=umlLifeline;perimeter=lifelinePerimeter;container=1;collapsible=0;recursiveResize=0;rounded=0;shadow=0;strokeWidth=1;" vertex="1" parent="1">
          <mxGeometry x="700" y="70" width="140" height="570" as="geometry" />
        </mxCell>
        <mxCell id="fY2GqMK77tZI2S2XJ3D0-28" value="" style="points=[];perimeter=orthogonalPerimeter;rounded=0;shadow=0;strokeWidth=1;" vertex="1" parent="fY2GqMK77tZI2S2XJ3D0-25">
          <mxGeometry x="65" y="70" width="10" height="140" as="geometry" />
        </mxCell>
        <mxCell id="fY2GqMK77tZI2S2XJ3D0-26" value="getAvailableSessions" style="verticalAlign=bottom;endArrow=block;entryX=0.5;entryY=0.375;shadow=0;strokeWidth=1;entryDx=0;entryDy=0;entryPerimeter=0;" edge="1" parent="1" source="fY2GqMK77tZI2S2XJ3D0-1" target="fY2GqMK77tZI2S2XJ3D0-28">
          <mxGeometry x="-0.04" y="10" relative="1" as="geometry">
            <mxPoint x="630" y="219.99999999999997" as="sourcePoint" />
            <mxPoint x="755" y="219.99999999999997" as="targetPoint" />
            <mxPoint as="offset" />
          </mxGeometry>
        </mxCell>
        <mxCell id="fY2GqMK77tZI2S2XJ3D0-27" value="MapperLivn" style="shape=umlLifeline;perimeter=lifelinePerimeter;container=1;collapsible=0;recursiveResize=0;rounded=0;shadow=0;strokeWidth=1;" vertex="1" parent="1">
          <mxGeometry x="860" y="70" width="140" height="570" as="geometry" />
        </mxCell>
        <mxCell id="fY2GqMK77tZI2S2XJ3D0-29" value="" style="points=[];perimeter=orthogonalPerimeter;rounded=0;shadow=0;strokeWidth=1;" vertex="1" parent="fY2GqMK77tZI2S2XJ3D0-27">
          <mxGeometry x="65" y="100" width="10" height="220" as="geometry" />
        </mxCell>
        <mxCell id="fY2GqMK77tZI2S2XJ3D0-31" value="transformData" style="verticalAlign=bottom;endArrow=block;shadow=0;strokeWidth=1;exitX=0.95;exitY=0.55;exitDx=0;exitDy=0;exitPerimeter=0;" edge="1" parent="1" source="fY2GqMK77tZI2S2XJ3D0-2">
          <mxGeometry relative="1" as="geometry">
            <mxPoint x="773" y="218" as="sourcePoint" />
            <mxPoint x="930" y="301" as="targetPoint" />
            <mxPoint as="offset" />
          </mxGeometry>
        </mxCell>
        <mxCell id="fY2GqMK77tZI2S2XJ3D0-32" value="response" style="verticalAlign=bottom;endArrow=block;shadow=0;strokeWidth=1;exitX=-0.3;exitY=0.744;exitDx=0;exitDy=0;exitPerimeter=0;entryX=1.15;entryY=0.336;entryDx=0;entryDy=0;entryPerimeter=0;" edge="1" parent="1" source="fY2GqMK77tZI2S2XJ3D0-28" target="fY2GqMK77tZI2S2XJ3D0-2">
          <mxGeometry relative="1" as="geometry">
            <mxPoint x="602.5" y="260" as="sourcePoint" />
            <mxPoint x="600" y="260" as="targetPoint" />
            <Array as="points" />
          </mxGeometry>
        </mxCell>
        <mxCell id="fY2GqMK77tZI2S2XJ3D0-34" value="callback" style="verticalAlign=bottom;endArrow=block;entryX=0.95;entryY=0.793;shadow=0;strokeWidth=1;entryDx=0;entryDy=0;entryPerimeter=0;" edge="1" parent="1" source="fY2GqMK77tZI2S2XJ3D0-27" target="fY2GqMK77tZI2S2XJ3D0-2">
          <mxGeometry x="0.0303" y="350" relative="1" as="geometry">
            <mxPoint x="854.5" y="369.5" as="sourcePoint" />
            <mxPoint x="680" y="369.70000000000005" as="targetPoint" />
            <Array as="points">
              <mxPoint x="775" y="369.5" />
            </Array>
            <mxPoint as="offset" />
          </mxGeometry>
        </mxCell>
        <mxCell id="fY2GqMK77tZI2S2XJ3D0-35" value="response" style="text;html=1;strokeColor=none;fillColor=none;align=center;verticalAlign=middle;whiteSpace=wrap;rounded=0;" vertex="1" parent="1">
          <mxGeometry x="350" y="410" width="40" height="20" as="geometry" />
        </mxCell>
        <mxCell id="fY2GqMK77tZI2S2XJ3D0-37" value="response" style="text;html=1;strokeColor=none;fillColor=none;align=center;verticalAlign=middle;whiteSpace=wrap;rounded=0;" vertex="1" parent="1">
          <mxGeometry x="720" y="350" width="40" height="20" as="geometry" />
        </mxCell>
      </root>
    </mxGraphModel>
  </diagram>
</mxfile>
